<svg id="Слой_1" data-name="Слой 1" xmlns="http://www.w3.org/2000/svg" viewBox="0 0 2005 1316.52"><defs><style>.cls-1{opacity:0.86;}.cls-2{fill:none;stroke:#152b3a;stroke-miterlimit:10;stroke-width:2.83px;}</style></defs><title>bg</title><g class="cls-1"><circle class="cls-2" cx="1002.5" cy="658.26" r="25.76"/><circle class="cls-2" cx="1002.5" cy="658.26" r="77.29"/><circle class="cls-2" cx="1002.5" cy="658.26" r="128.81"/><circle class="cls-2" cx="1002.5" cy="658.26" r="180.33"/><circle class="cls-2" cx="1002.5" cy="658.26" r="231.86"/><circle class="cls-2" cx="1002.5" cy="658.26" r="283.38"/><circle class="cls-2" cx="1002.5" cy="658.26" r="386.43"/><circle class="cls-2" cx="1002.5" cy="658.26" r="334.9"/><circle class="cls-2" cx="1002.5" cy="658.26" r="437.95"/><circle class="cls-2" cx="1002.5" cy="658.26" r="540"/><circle class="cls-2" cx="1002.5" cy="658.26" r="489.63"/><circle class="cls-2" cx="1002.5" cy="659.26" r="590.5"/><circle class="cls-2" cx="1002.5" cy="659.26" r="641"/><circle class="cls-2" cx="1002.5" cy="659.26" r="691.5"/><circle class="cls-2" cx="1004.5" cy="659.26" r="1196.5"/><circle class="cls-2" cx="1004.5" cy="659.26" r="1146"/><circle class="cls-2" cx="1004.5" cy="659.26" r="1095.5"/><circle class="cls-2" cx="1004.5" cy="659.26" r="1045"/><circle class="cls-2" cx="1004.5" cy="659.26" r="994.5"/><circle class="cls-2" cx="1004.5" cy="659.26" r="944"/><circle class="cls-2" cx="1004.5" cy="659.26" r="893.5"/><circle class="cls-2" cx="1004.5" cy="659.26" r="843"/><circle class="cls-2" cx="1004.5" cy="659.26" r="792.5"/><circle class="cls-2" cx="1004.5" cy="659.26" r="742"/></g></svg>